<!DOCTYPE svg PUBLIC "-//W3C//DTD SVG 1.1//EN" "http://www.w3.org/Graphics/SVG/1.1/DTD/svg11.dtd">
<!-- Uploaded to: SVG Repo, www.svgrepo.com, Transformed by: SVG Repo Mixer Tools -->
<svg fill="#ea284e" version="1.1" id="Capa_1" xmlns="http://www.w3.org/2000/svg" xmlns:xlink="http://www.w3.org/1999/xlink" width="800px" height="800px" viewBox="0 0 427.835 427.835" xml:space="preserve">
<g id="SVGRepo_bgCarrier" stroke-width="0"/>
<g id="SVGRepo_tracerCarrier" stroke-linecap="round" stroke-linejoin="round"/>
<g id="SVGRepo_iconCarrier"> <g> <g> <path d="M423.882,76.853c0-21.678-17.572-39.248-39.248-39.248H39.248C17.572,37.605,0,55.175,0,76.853v34.368h423.883 L423.882,76.853L423.882,76.853z"/> <path d="M415.408,304.776l-4.062-4.062c7.709-7.166,12.535-17.389,12.535-28.741V152.905H0v119.068 c0,21.676,17.572,39.247,39.248,39.247h236.717l35.906,35.906l0,0l30.592,30.592c6.81,6.811,15.58,11.158,24.689,12.24 c1.506,0.18,3.028,0.271,4.522,0.271c0,0,0,0,0.002,0c9.42,0,18.16-3.551,24.605-9.998l21.643-21.639 C432.066,344.449,430.937,320.307,415.408,304.776z M149.335,258.054c0,2.926-2.373,5.298-5.299,5.298H62.347 c-2.926,0-5.299-2.372-5.299-5.298v-16.117c0-2.928,2.373-5.299,5.299-5.299h81.689c2.926,0,5.299,2.371,5.299,5.299V258.054 L149.335,258.054z M331.849,334.355L222.712,225.216c-2-2-3.383-4.49-3.903-7.034l-6.616-32.204 c-0.721-3.533,0.123-6.807,2.316-8.998c2.193-2.193,5.474-3.038,8.998-2.314l32.203,6.613c2.537,0.522,5.021,1.898,7.021,3.892 l109.284,109.021L331.849,334.355z M401.546,342.221c0,0,0,0-0.002,0l-21.637,21.638c-2.479,2.479-6.033,3.58-10.015,3.105 c-3.979-0.473-7.903-2.471-11.055-5.621l-14.215-14.215l40.191-40.192l14.217,14.216 C405.533,327.653,406.662,337.103,401.546,342.221z"/> </g> </g> </g>
</svg>