<?xml version="1.0" encoding="utf-8"?>
<svg version="1.1" xmlns="http://www.w3.org/2000/svg" x="0px" y="0px" viewBox="0 0 64 64" style="enable-background:new 0 0 200 200;">
  <g id="DESIGN" transform="matrix(0.680595, 0, 0, 0.680595, -37.228077, -39.085381)" style="">
    <g>
      <g transform="matrix(1, 0, 0, 1, 7.198984, 5.200492)" style="">
        <g>
          <path style="fill-rule: evenodd; clip-rule: evenodd; fill: rgb(238, 29, 82); stroke-width: 0px; paint-order: fill;" d="M112.284,80.811c4.08,2.915,9.079,4.63,14.477,4.63V75.058 c-1.022,0-2.041-0.106-3.04-0.318v8.173c-5.398,0-10.396-1.715-14.477-4.63v21.189c0,10.6-8.597,19.192-19.202,19.192 c-3.957,0-7.634-1.196-10.69-3.246c3.487,3.563,8.349,5.774,13.729,5.774c10.605,0,19.203-8.592,19.203-19.192L112.284,80.811 L112.284,80.811z M116.034,70.336c-2.085-2.277-3.454-5.219-3.75-8.473v-1.335h-2.881 C110.128,64.662,112.601,68.195,116.034,70.336L116.034,70.336z M86.059,107.284c-1.165-1.527-1.795-3.395-1.792-5.315 c0-4.848,3.932-8.779,8.784-8.779c0.904-0.001,1.803,0.138,2.665,0.411V82.987c-1.007-0.138-2.023-0.196-3.039-0.175v8.262 c-0.862-0.273-1.761-0.412-2.666-0.411c-4.851,0-8.783,3.931-8.783,8.779C81.228,102.87,83.193,105.838,86.059,107.284z"/>
          <path style="fill-rule: evenodd; clip-rule: evenodd; fill: rgb(255, 255, 255); stroke-width: 0px; paint-order: fill;" d="M109.243,78.283c4.081,2.915,9.079,4.63,14.477,4.63V74.74 c-3.013-0.641-5.68-2.215-7.686-4.404c-3.433-2.141-5.906-5.673-6.632-9.808h-7.568v41.471 c-0.017,4.835-3.943,8.749-8.784,8.749c-2.853,0-5.387-1.359-6.992-3.464c-2.866-1.446-4.832-4.414-4.832-7.842 c0-4.848,3.932-8.779,8.783-8.779c0.929,0,1.825,0.145,2.666,0.411v-8.262c-10.418,0.215-18.797,8.723-18.797,19.188 c0,5.224,2.087,9.959,5.473,13.419c3.055,2.05,6.733,3.246,10.69,3.246c10.605,0,19.202-8.593,19.202-19.192V78.283z"/>
          <path style="fill-rule: evenodd; clip-rule: evenodd; fill: rgb(105, 201, 208); stroke-width: 0px; paint-order: fill;" d="M123.72,74.74v-2.21c-2.717,0.004-5.381-0.757-7.686-2.195 C118.075,72.568,120.762,74.108,123.72,74.74z M109.403,60.528c-0.069-0.395-0.122-0.793-0.159-1.192V58H98.794v41.472 c-0.017,4.834-3.942,8.749-8.784,8.749c-1.422,0-2.763-0.337-3.952-0.937c1.605,2.105,4.139,3.464,6.992,3.464 c4.841,0,8.767-3.914,8.784-8.749V60.528H109.403z M92.677,82.812v-2.353c-0.873-0.119-1.753-0.179-2.635-0.179 c-10.606,0-19.203,8.592-19.203,19.191c0,6.645,3.379,12.501,8.513,15.946c-3.386-3.46-5.473-8.195-5.473-13.419 C73.879,91.535,82.258,83.027,92.677,82.812L92.677,82.812z"/>
        </g>
        <text style="fill: rgb(255, 255, 255); font-family: &quot;Berlin Sans FB&quot;; font-size: 12px; white-space: pre;" x="60.243" y="137.967">TIKTOKSHOP</text>
      </g>
    </g>
  </g>
</svg>